<?xml version="1.0" encoding="UTF-8"?>
<svg width="102px" height="36px" viewBox="0 0 102 36" version="1.1" xmlns="http://www.w3.org/2000/svg" xmlns:xlink="http://www.w3.org/1999/xlink">
    <!-- Generator: Sketch 55.1 (78136) - https://sketchapp.com -->
    <title>Group</title>
    <desc>Created with Sketch.</desc>
    <g id="Page-1" stroke="none" stroke-width="1" fill="none" fill-rule="evenodd">
        <g id="Group">
            <polygon id="Rectangle" fill="#000000" points="0 0 102 0 102 36 0 32.3840415"></polygon>
            <path d="M22.128,14.632 C21.04,14.632 20.128,15.416 20.128,16.84 C20.128,18.264 21.056,19.064 22.144,19.064 C23.232,19.064 23.776,18.344 23.952,17.736 L25.824,18.36 C25.472,19.672 24.24,21.016 22.144,21.016 C19.824,21.016 18,19.256 18,16.84 C18,14.408 19.792,12.664 22.08,12.664 C24.224,12.664 25.44,13.992 25.776,15.32 L23.872,15.96 C23.68,15.304 23.184,14.632 22.128,14.632 Z M32.192,12.872 L32.192,15.016 C31.952,14.968 31.744,14.952 31.552,14.952 C30.464,14.952 29.52,15.48 29.52,17.176 L29.52,20.776 L27.392,20.776 L27.392,12.904 L29.456,12.904 L29.456,14.072 C29.936,13.032 31.024,12.84 31.696,12.84 C31.872,12.84 32.032,12.856 32.192,12.872 Z M35.168,15.944 L38.688,15.944 C38.656,15.16 38.144,14.392 36.928,14.392 C35.824,14.392 35.216,15.224 35.168,15.944 Z M38.896,17.992 L40.672,18.52 C40.272,19.88 39.024,21.016 37.088,21.016 C34.928,21.016 33.024,19.464 33.024,16.808 C33.024,14.296 34.88,12.664 36.896,12.664 C39.328,12.664 40.784,14.216 40.784,16.744 C40.784,17.048 40.752,17.368 40.752,17.4 L35.12,17.4 C35.168,18.44 36.048,19.192 37.104,19.192 C38.096,19.192 38.64,18.696 38.896,17.992 Z M41.984,18.632 C41.984,17.224 43.024,16.44 44.336,16.248 L46.272,15.96 C46.72,15.896 46.864,15.672 46.864,15.4 C46.864,14.84 46.432,14.376 45.536,14.376 C44.608,14.376 44.096,14.968 44.032,15.656 L42.144,15.256 C42.272,14.024 43.408,12.664 45.52,12.664 C48.016,12.664 48.944,14.072 48.944,15.656 L48.944,19.528 C48.944,19.944 48.992,20.504 49.04,20.776 L47.088,20.776 C47.04,20.568 47.008,20.136 47.008,19.832 C46.608,20.456 45.856,21 44.688,21 C43.008,21 41.984,19.864 41.984,18.632 Z M45.136,19.416 C46.032,19.416 46.864,18.984 46.864,17.592 L46.864,17.24 L45.088,17.512 C44.544,17.592 44.112,17.896 44.112,18.504 C44.112,18.968 44.448,19.416 45.136,19.416 Z M53.664,10.552 L53.664,12.904 L55.248,12.904 L55.248,14.792 L53.664,14.792 L53.664,18.088 C53.664,18.776 53.984,19 54.592,19 C54.848,19 55.136,18.968 55.248,18.936 L55.248,20.696 C55.056,20.776 54.672,20.888 54.048,20.888 C52.512,20.888 51.552,19.976 51.552,18.456 L51.552,14.792 L50.128,14.792 L50.128,12.904 L50.528,12.904 C51.36,12.904 51.744,12.36 51.744,11.656 L51.744,10.552 L53.664,10.552 Z M59.184,20.776 L57.056,20.776 L57.056,12.904 L59.184,12.904 L59.184,20.776 Z M56.8,10.328 C56.8,9.592 57.392,9 58.112,9 C58.848,9 59.424,9.592 59.424,10.328 C59.424,11.032 58.848,11.624 58.112,11.624 C57.392,11.624 56.8,11.032 56.8,10.328 Z M68.88,12.904 L65.824,20.776 L63.696,20.776 L60.48,12.904 L62.816,12.904 L64.768,18.184 L66.64,12.904 L68.88,12.904 Z M73.472,19.08 C74.512,19.08 75.472,18.328 75.472,16.84 C75.472,15.352 74.512,14.6 73.472,14.6 C72.432,14.6 71.472,15.352 71.472,16.84 C71.472,18.312 72.432,19.08 73.472,19.08 Z M73.472,12.664 C75.824,12.664 77.6,14.408 77.6,16.84 C77.6,19.256 75.824,21.016 73.472,21.016 C71.12,21.016 69.344,19.256 69.344,16.84 C69.344,14.408 71.12,12.664 73.472,12.664 Z M78.608,18.584 L80.432,18.184 C80.48,18.808 80.944,19.384 81.872,19.384 C82.576,19.384 82.912,19.016 82.912,18.6 C82.912,18.248 82.672,17.96 82.064,17.832 L81.024,17.592 C79.504,17.256 78.816,16.344 78.816,15.24 C78.816,13.832 80.064,12.664 81.76,12.664 C84,12.664 84.752,14.088 84.848,14.936 L83.072,15.336 C83.008,14.872 82.672,14.28 81.776,14.28 C81.216,14.28 80.768,14.616 80.768,15.064 C80.768,15.448 81.056,15.688 81.488,15.768 L82.608,16.008 C84.16,16.328 84.944,17.272 84.944,18.424 C84.944,19.704 83.952,21.016 81.888,21.016 C79.52,21.016 78.704,19.48 78.608,18.584 Z" id="creativos" fill="#FFFFFF" fill-rule="nonzero"></path>
        </g>
    </g>
</svg>