<?xml version="1.0" encoding="UTF-8"?>
<svg width="1065px" height="376px" viewBox="0 0 1065 376" version="1.1" xmlns="http://www.w3.org/2000/svg" xmlns:xlink="http://www.w3.org/1999/xlink">
    <!-- Generator: Sketch 55.2 (78181) - https://sketchapp.com -->
    <title>logo</title>
    <desc>Created with Sketch.</desc>
    <g id="Page-1" stroke="none" stroke-width="1" fill="none" fill-rule="evenodd">
        <g id="logo" fill-rule="nonzero">
            <polygon id="Rectangle" fill="#000000" points="0 0 1065 0 1065 376 0 338.233322"></polygon>
            <path d="M226.102772,184.057257 C214.742352,184.057257 205.219646,192.278296 205.219646,207.210386 C205.219646,222.142477 214.909417,230.531292 226.269837,230.531292 C237.630258,230.531292 243.310468,222.981358 245.148184,216.605859 L264.69479,223.149134 C261.019359,236.906791 248.155354,251 226.269837,251 C202.045411,251 183,232.544607 183,207.210386 C183,181.708389 201.711281,163.420772 225.601577,163.420772 C247.988289,163.420772 260.685229,177.346205 264.193595,191.271638 L244.312859,197.98269 C242.308078,191.103862 237.129063,184.057257 226.102772,184.057257 Z M331.186663,165.601864 L331.186663,188.083888 C328.680688,187.580559 326.508843,187.412783 324.504063,187.412783 C313.143642,187.412783 303.286807,192.949401 303.286807,210.733688 L303.286807,248.483356 L281.067161,248.483356 L281.067161,165.937417 L302.618547,165.937417 L302.618547,178.185087 C307.630497,167.279627 318.990918,165.266312 326.007648,165.266312 C327.845363,165.266312 329.516013,165.434088 331.186663,165.601864 Z M362.260755,197.814913 L399.015057,197.814913 C398.680927,189.593875 393.334847,181.540613 380.637906,181.540613 C369.110421,181.540613 362.76195,190.26498 362.260755,197.814913 Z M401.186902,219.29028 L419.731119,224.826897 C415.554493,239.087883 402.523423,251 382.308556,251 C359.75478,251 339.874044,234.725699 339.874044,206.874834 C339.874044,180.533955 359.253585,163.420772 380.303776,163.420772 C405.697658,163.420772 420.900574,179.695073 420.900574,206.203728 C420.900574,209.391478 420.566444,212.747004 420.566444,213.082557 L361.75956,213.082557 C362.260755,223.988016 371.449331,231.873502 382.475621,231.873502 C392.833652,231.873502 398.513862,226.672437 401.186902,219.29028 Z M433.430449,226.001332 C433.430449,211.237017 444.289675,203.015979 457.989006,201.002663 L478.203872,197.98269 C482.881692,197.311585 484.385277,194.962716 484.385277,192.110519 C484.385277,186.238349 479.874522,181.372836 470.518881,181.372836 C460.829111,181.372836 455.483031,187.580559 454.814771,194.79494 L435.101099,190.600533 C436.43762,177.681758 448.299235,163.420772 470.351816,163.420772 C496.413958,163.420772 506.103728,178.185087 506.103728,194.79494 L506.103728,235.396804 C506.103728,239.758988 506.604924,245.631158 507.106119,248.483356 L486.724187,248.483356 C486.222992,246.302264 485.888862,241.772304 485.888862,238.584554 C481.712237,245.12783 473.860182,250.832224 461.664436,250.832224 C444.12261,250.832224 433.430449,238.920107 433.430449,226.001332 Z M466.342256,234.22237 C475.697897,234.22237 484.385277,229.69241 484.385277,215.095872 L484.385277,211.404794 L465.841061,214.256991 C460.160851,215.095872 455.650096,218.283622 455.650096,224.659121 C455.650096,229.524634 459.158461,234.22237 466.342256,234.22237 Z M555.387906,141.274301 L555.387906,165.937417 L571.927342,165.937417 L571.927342,185.73502 L555.387906,185.73502 L555.387906,220.296937 C555.387906,227.511318 558.729207,229.860186 565.077677,229.860186 C567.750717,229.860186 570.757887,229.524634 571.927342,229.189081 L571.927342,247.644474 C569.922562,248.483356 565.913002,249.65779 559.397467,249.65779 C543.359226,249.65779 533.335325,240.094541 533.335325,224.155792 L533.335325,185.73502 L518.466539,185.73502 L518.466539,165.937417 L522.643164,165.937417 C531.330545,165.937417 535.340105,160.233023 535.340105,152.850866 L535.340105,141.274301 L555.387906,141.274301 Z M613.025335,248.483356 L590.805688,248.483356 L590.805688,165.937417 L613.025335,165.937417 L613.025335,248.483356 Z M588.132648,138.925433 C588.132648,131.207723 594.314054,125 601.831979,125 C609.516969,125 615.53131,131.207723 615.53131,138.925433 C615.53131,146.30759 609.516969,152.515313 601.831979,152.515313 C594.314054,152.515313 588.132648,146.30759 588.132648,138.925433 Z M714.26673,165.937417 L682.357314,248.483356 L660.137667,248.483356 L626.5576,165.937417 L650.949092,165.937417 L671.331023,221.303595 L690.877629,165.937417 L714.26673,165.937417 Z M762.214388,230.699068 C773.073614,230.699068 783.097514,222.813582 783.097514,207.210386 C783.097514,191.60719 773.073614,183.721704 762.214388,183.721704 C751.355163,183.721704 741.331262,191.60719 741.331262,207.210386 C741.331262,222.645806 751.355163,230.699068 762.214388,230.699068 Z M762.214388,163.420772 C786.772945,163.420772 805.317161,181.708389 805.317161,207.210386 C805.317161,232.544607 786.772945,251 762.214388,251 C737.655832,251 719.111616,232.544607 719.111616,207.210386 C719.111616,181.708389 737.655832,163.420772 762.214388,163.420772 Z M815.842256,225.498003 L834.887667,221.303595 C835.388862,227.846871 840.233748,233.886818 849.923518,233.886818 C857.274379,233.886818 860.782744,230.027963 860.782744,225.665779 C860.782744,221.9747 858.276769,218.954727 851.928298,217.612517 L841.069073,215.095872 C825.197897,211.57257 818.014101,202.009321 818.014101,190.432756 C818.014101,175.668442 831.045172,163.420772 848.754063,163.420772 C872.143164,163.420772 879.99522,178.352863 880.99761,187.245007 L862.453394,191.439414 C861.785134,186.573901 858.276769,180.366178 848.921128,180.366178 C843.073853,180.366178 838.396033,183.889481 838.396033,188.587217 C838.396033,192.613848 841.403203,195.130493 845.913958,195.969374 L857.608509,198.486019 C873.813815,201.841545 882,211.740346 882,223.82024 C882,237.242344 871.641969,251 850.090583,251 C825.364962,251 816.844646,234.893475 815.842256,225.498003 Z" id="creativos" fill="#FFFFFF"></path>
        </g>
    </g>
</svg>